<?xml version="1.0" encoding="UTF-8" standalone="no"?> 
<svg width="466px" height="84px" viewBox="0 0 466 84" version="1.1" xmlns="http://www.w3.org/2000/svg" xmlns:xlink="http://www.w3.org/1999/xlink">
    <!-- Generator: Sketch 43.2 (39069) - http://www.bohemiancoding.com/sketch -->
    <desc>Created with Sketch.</desc>
    <defs>
        <linearGradient x1="50%" y1="0%" x2="50%" y2="100%" id="linearGradient-1">
            <stop stop-color="#4F96D8" offset="0%"></stop>
            <stop stop-color="#1C68C0" offset="100%"></stop>
        </linearGradient>
    </defs>
    <g id="Page-1" stroke="none" stroke-width="1" fill="none" fill-rule="evenodd">
        <g id="logo" fill="url(#linearGradient-1)">
            <g id="Group">
                <path d="M43.333,0 L43.333,7.01083598 C60.183,8.77087849 73.333,23.721811 73.333,41.905774 C73.333,60.086594 60.183,75.0364789 43.333,76.7965214 L43.333,83.8115479 C63.864,82.0284572 80,63.9607828 80,41.905774 C80,19.8476222 63.864,1.78728126 43.333,0 Z M36.667,76.7965214 C19.824,75.0364789 6.667,60.086594 6.667,41.905774 C6.667,23.7228586 19.824,8.77087849 36.667,7.01083598 L36.667,0 C16.14,1.78728126 0,19.8476222 0,41.905774 C0,63.9607828 16.14,82.0284572 36.667,83.8115479 L36.667,76.7965214 Z" id="Shape" fill-rule="nonzero"></path>
                <path d="M20.3,38.4139753 C21.888,28.5064027 30.091,20.952887 40,20.952887 C49.909,20.952887 58.112,28.5064027 59.7,38.4139753 L66.435,38.4139753 C64.795,24.6364045 53.601,13.9682421 40,13.9682421 C26.406,13.9682421 15.208,24.6364045 13.564,38.4139753 L20.3,38.4139753 Z M59.7,45.3975726 C58.112,55.3009546 49.909,62.8586609 40,62.8586609 C30.091,62.8586609 21.888,55.3009546 20.3,45.3975726 L13.565,45.3975726 C15.208,59.1751434 26.406,69.8433058 40,69.8433058 C53.601,69.8433058 64.795,59.1751434 66.436,45.3975726 L59.7,45.3975726 Z" id="Shape" fill-rule="nonzero"></path>
                <path d="M40,27.9375319 C32.637,27.9375319 26.667,34.1919686 26.667,41.905774 C26.667,49.6195793 32.637,55.8740161 40,55.8740161 C47.366,55.8740161 53.333,49.6195793 53.333,41.905774 C53.333,34.1919686 47.366,27.9375319 40,27.9375319 Z M40,48.8904188 C36.3179176,48.8904188 33.333,45.7632868 33.333,41.905774 C33.333,38.0482611 36.3179176,34.9211291 40,34.9211291 C43.6820824,34.9211291 46.667,38.0482611 46.667,41.905774 C46.667,45.7632868 43.6820824,48.8904188 40,48.8904188 Z" id="Shape" fill-rule="nonzero"></path>
                <text id="TRIALSEARCH" font-family="Helvetica-Bold, Helvetica" font-size="36" font-weight="bold" letter-spacing="9.99999905">
                    <tspan x="110.150874" y="53.0477692">TRIALSEARCH</tspan>
                </text>
            </g>
        </g>
    </g>
</svg>
